<svg width="50" height="50" viewBox="0 0 50 50" fill="none" xmlns="http://www.w3.org/2000/svg">
<path d="M0.374298 12.68C0.374298 6.07435 5.72926 0.719391 12.3349 0.719391H37.2931C43.8987 0.719391 49.2537 6.07435 49.2537 12.68V37.6382C49.2537 44.2438 43.8987 49.5988 37.2931 49.5988H12.3349C5.72926 49.5988 0.374298 44.2438 0.374298 37.6382V12.68Z" fill="#FF9B53"/>
<path d="M29.0045 14.207C28.5119 13.7194 27.8441 13.4454 27.1477 13.4454C26.4514 13.4454 25.7836 13.7194 25.291 14.207L13.7583 25.6332C13.5144 25.8748 13.321 26.1617 13.189 26.4774C13.057 26.7931 12.989 27.1315 12.989 27.4732C12.989 27.8149 13.057 28.1533 13.189 28.469C13.321 28.7847 13.5144 29.0715 13.7583 29.3132L15.1265 30.6674C15.7219 31.2584 16.5589 31.1531 17.0644 30.8548C17.3432 30.6908 17.6693 30.6234 17.991 30.6634C18.3128 30.7034 18.612 30.8484 18.8413 31.0756C19.0706 31.3027 19.217 31.5991 19.2573 31.9179C19.2977 32.2366 19.2297 32.5596 19.0641 32.8358C18.7641 33.3366 18.6567 34.1658 19.2533 34.7556L20.6226 36.111C20.8665 36.3527 21.1561 36.5443 21.4748 36.6751C21.7934 36.8059 22.135 36.8732 22.4799 36.8732C22.8249 36.8732 23.1664 36.8059 23.4851 36.6751C23.8038 36.5443 24.0933 36.3527 24.3372 36.111L35.8687 24.6872C36.1126 24.4456 36.3061 24.1587 36.4381 23.843C36.5701 23.5273 36.6381 23.1889 36.6381 22.8472C36.6381 22.5055 36.5701 22.1671 36.4381 21.8514C36.3061 21.5357 36.1126 21.2488 35.8687 21.0072L34.5017 19.6518C33.9064 19.062 33.0682 19.1661 32.5627 19.4645C32.2839 19.6285 31.9578 19.6958 31.6361 19.6558C31.3143 19.6158 31.0151 19.4708 30.7858 19.2436C30.5565 19.0165 30.4101 18.7201 30.3698 18.4014C30.3294 18.0826 30.3974 17.7596 30.5629 17.4834C30.8641 16.9826 30.9704 16.1534 30.3738 15.5636L29.0056 14.207H29.0045Z" fill="white"/>
</svg>
