<svg width="50" height="50" viewBox="0 0 50 50" fill="none" xmlns="http://www.w3.org/2000/svg">
<path d="M0.771484 12.68C0.771484 6.07435 6.12644 0.719391 12.7321 0.719391H37.6903C44.2959 0.719391 49.6509 6.07435 49.6509 12.68V37.6382C49.6509 44.2438 44.2959 49.5988 37.6902 49.5988H12.7321C6.12644 49.5988 0.771484 44.2438 0.771484 37.6382V12.68Z" fill="#79CA00"/>
<path d="M33.018 16.4579H17.4039C16.3275 16.4579 15.4521 17.3251 15.4521 18.3914V31.9263C15.4521 32.9927 16.3275 33.8599 17.4039 33.8599H33.018C34.0944 33.8599 34.9698 32.9927 34.9698 31.9263V18.3914C34.9698 17.3251 34.0944 16.4579 33.018 16.4579ZM33.019 22.2585C33.018 22.2585 33.018 22.2585 33.019 22.2585H32.5652L29.9625 18.3914H33.018L33.019 22.2585ZM28.6265 28.0592L23.2592 30.9595V25.1589L28.6265 28.0592ZM27.6858 22.2585L25.0831 18.3914H27.6165L30.2192 22.2585H27.6858ZM25.3398 22.2585H22.8064L20.2037 18.3914H22.7371L25.3398 22.2585ZM17.4039 18.3914H17.8577L20.4604 22.2585H17.4039V18.3914Z" fill="white"/>
</svg>
