<svg width="53" height="50" viewBox="0 0 53 50" fill="none" xmlns="http://www.w3.org/2000/svg">
<path d="M0.563477 12.68C0.563477 6.07435 5.91844 0.719391 12.5241 0.719391H40.9306C47.5363 0.719391 52.8912 6.07435 52.8912 12.68V37.6382C52.8912 44.2438 47.5363 49.5988 40.9306 49.5988H12.5241C5.91844 49.5988 0.563477 44.2438 0.563477 37.6382V12.68Z" fill="#4DABFF"/>
<path d="M34.8794 18.4844C34.6438 17.8412 33.9841 17.3833 33.2066 17.3833H30.2614V16.2931C30.2614 15.6935 29.7313 15.203 29.0833 15.203H24.3711C23.7231 15.203 23.193 15.6935 23.193 16.2931V17.3833H20.2478C19.4703 17.3833 18.8224 17.8412 18.575 18.4844L16.2542 24.6656C16.1717 24.8945 16.1246 25.1343 16.1246 25.3851V33.1906C16.1246 34.0955 16.9139 34.8259 17.8917 34.8259C18.8695 34.8259 19.6588 34.0955 19.6588 33.1906V32.6456H33.7956V33.1906C33.7956 34.0846 34.5849 34.8259 35.5627 34.8259C36.5287 34.8259 37.3298 34.0955 37.3298 33.1906V25.3851C37.3298 25.1452 37.2827 24.8945 37.2002 24.6656L34.8794 18.4844ZM20.2478 29.3751C19.27 29.3751 18.4807 28.6447 18.4807 27.7398C18.4807 26.835 19.27 26.1046 20.2478 26.1046C21.2256 26.1046 22.0149 26.835 22.0149 27.7398C22.0149 28.6447 21.2256 29.3751 20.2478 29.3751ZM33.2066 29.3751C32.2288 29.3751 31.4395 28.6447 31.4395 27.7398C31.4395 26.835 32.2288 26.1046 33.2066 26.1046C34.1844 26.1046 34.9737 26.835 34.9737 27.7398C34.9737 28.6447 34.1844 29.3751 33.2066 29.3751ZM18.4807 23.9243L20.2478 19.0185H33.2066L34.9737 23.9243H18.4807Z" fill="white"/>
</svg>
