<svg width="49" height="50" viewBox="0 0 49 50" fill="none" xmlns="http://www.w3.org/2000/svg">
<path d="M0.0796661 12.68C0.0796661 6.07435 5.43462 0.719391 12.0403 0.719391H36.9984C43.6041 0.719391 48.9591 6.07435 48.9591 12.68V37.6382C48.9591 44.2438 43.6041 49.5988 36.9984 49.5988H12.0403C5.43462 49.5988 0.0796661 44.2438 0.0796661 37.6382V12.68Z" fill="#FDBF00"/>
<path d="M14.4581 31.1194C14.4581 32.2158 14.9486 33.2001 15.7158 33.8853V35.4801C15.7158 36.5142 16.5584 37.3489 17.6022 37.3489C18.6461 37.3489 19.4887 36.5142 19.4887 35.4801V34.8571H29.5497V35.4801C29.5497 36.5017 30.3924 37.3489 31.4362 37.3489C32.4675 37.3489 33.3227 36.5142 33.3227 35.4801V33.8853C34.0898 33.2001 34.5803 32.2158 34.5803 31.1194V18.6605C34.5803 14.2998 30.078 13.6769 24.5192 13.6769C18.9605 13.6769 14.4581 14.2998 14.4581 18.6605V31.1194ZM18.8599 32.3653C17.816 32.3653 16.9734 31.5306 16.9734 30.4965C16.9734 29.4624 17.816 28.6277 18.8599 28.6277C19.9037 28.6277 20.7463 29.4624 20.7463 30.4965C20.7463 31.5306 19.9037 32.3653 18.8599 32.3653ZM30.1786 32.3653C29.1347 32.3653 28.2921 31.5306 28.2921 30.4965C28.2921 29.4624 29.1347 28.6277 30.1786 28.6277C31.2224 28.6277 32.065 29.4624 32.065 30.4965C32.065 31.5306 31.2224 32.3653 30.1786 32.3653ZM32.065 24.89H16.9734V18.6605H32.065V24.89Z" fill="white"/>
</svg>
