<svg width="89" height="19" viewBox="0 0 89 19" fill="none" xmlns="http://www.w3.org/2000/svg">
<line x1="4.53864" y1="9.27954" x2="81.9477" y2="9.27954" stroke="#CCCCCC" stroke-width="0.74754" stroke-dasharray="2.24 2.24"/>
<path d="M43.8445 16.694H42.8238C42.7212 16.6939 42.6203 16.6704 42.5302 16.6255C42.4402 16.5807 42.3639 16.5159 42.3083 16.4371C42.2528 16.3583 42.2197 16.2681 42.2121 16.1746C42.2046 16.0811 42.2228 15.9874 42.2651 15.9021L44.7367 10.9175L41.0254 10.8421L39.6719 12.3408C39.4138 12.6373 39.2079 12.7694 38.6826 12.7694H37.9955C37.8867 12.7726 37.7787 12.7518 37.6805 12.7087C37.5824 12.6657 37.4971 12.6016 37.4318 12.522C37.3406 12.4095 37.2508 12.2189 37.3383 11.947L38.0982 9.45908C38.104 9.44051 38.1109 9.42194 38.1186 9.40372C38.1189 9.40198 38.1189 9.4002 38.1186 9.39846C38.1106 9.38026 38.1039 9.36165 38.0982 9.34275L37.3375 6.83907C37.2551 6.57241 37.3452 6.38599 37.4357 6.27632C37.4964 6.20263 37.5753 6.143 37.6658 6.10223C37.7564 6.06145 37.8562 6.04067 37.9571 6.04154H38.6826C39.0749 6.04154 39.4556 6.20238 39.6795 6.46203L41.0051 7.9355L44.7367 7.88504L42.2659 2.90923C42.2235 2.82389 42.2052 2.73021 42.2127 2.63674C42.2202 2.54328 42.2532 2.45302 42.3086 2.37421C42.3641 2.29541 42.4404 2.23057 42.5304 2.18563C42.6203 2.14069 42.7212 2.11708 42.8238 2.11696H43.8556C43.9996 2.1196 44.141 2.15185 44.2695 2.2113C44.3979 2.27075 44.51 2.35587 44.5976 2.46036L49.3925 7.78658L51.6076 7.73332C51.7698 7.72526 52.2192 7.72245 52.3231 7.72245C54.442 7.72351 55.7074 8.35214 55.7074 9.40547C55.7074 9.73696 55.5624 10.3516 54.5927 10.7426C54.0202 10.9739 53.2564 11.0909 52.3224 11.0909C52.2196 11.0909 51.7713 11.0881 51.6069 11.0801L49.3921 11.0261L44.5853 16.3523C44.4977 16.4564 44.3857 16.5411 44.2574 16.6002C44.1292 16.6593 43.9881 16.6914 43.8445 16.694Z" fill="#1262AE"/>
<circle cx="4.73214" cy="9.65332" r="2.99016" fill="white" stroke="#1262AE" stroke-width="1.49508"/>
<circle cx="84.981" cy="9.34158" r="2.99016" fill="white" stroke="#1262AE" stroke-width="1.49508"/>
</svg>
