<svg width="50" height="50" viewBox="0 0 50 50" fill="none" xmlns="http://www.w3.org/2000/svg">
<rect x="0.152771" y="0.719391" width="48.8794" height="48.8794" rx="11.9606" fill="#F9668D"/>
<path d="M23.7371 21.7672H25.4491V20.9192C25.4491 20.6943 25.5393 20.4786 25.6998 20.3196C25.8604 20.1605 26.0781 20.0712 26.3051 20.0712H28.8732C29.1002 20.0712 29.3179 20.1605 29.4785 20.3196C29.639 20.4786 29.7292 20.6943 29.7292 20.9192V21.7672H33.1533V18.3752C33.1533 17.4756 32.7925 16.6128 32.1504 15.9767C31.5082 15.3406 30.6373 14.9832 29.7292 14.9832H19.457C18.5489 14.9832 17.6779 15.3406 17.0358 15.9767C16.3936 16.6128 16.0329 17.4756 16.0329 18.3752V21.7672H19.457V20.9192C19.457 20.6943 19.5472 20.4786 19.7077 20.3196C19.8682 20.1605 20.086 20.0712 20.313 20.0712H22.881C23.1081 20.0712 23.3258 20.1605 23.4863 20.3196C23.6469 20.4786 23.7371 20.6943 23.7371 20.9192V21.7672Z" fill="white"/>
<path d="M16.889 23.4632C15.7539 23.4632 14.6653 23.9099 13.8626 24.705C13.06 25.5002 12.6091 26.5786 12.6091 27.7031V34.4871C12.6091 34.712 12.6993 34.9277 12.8598 35.0867C13.0203 35.2457 13.238 35.3351 13.4651 35.3351C13.6921 35.3351 13.9098 35.2457 14.0703 35.0867C14.2308 34.9277 14.321 34.712 14.321 34.4871V30.2471H34.8646V34.4871C34.8646 34.712 34.9548 34.9277 35.1153 35.0867C35.2758 35.2457 35.4936 35.3351 35.7206 35.3351C35.9476 35.3351 36.1653 35.2457 36.3258 35.0867C36.4864 34.9277 36.5766 34.712 36.5766 34.4871V27.7031C36.5766 26.5786 36.1256 25.5002 35.323 24.705C34.5204 23.9099 33.4318 23.4632 32.2966 23.4632H16.889Z" fill="white"/>
</svg>
