<svg width="50" height="50" viewBox="0 0 50 50" fill="none" xmlns="http://www.w3.org/2000/svg">
<rect x="0.595825" y="0.719391" width="48.8794" height="48.8794" rx="11.9606" fill="#36DA76"/>
<path d="M31.3655 34.6862C31.3245 33.8091 31.2701 32.9365 31.2266 32.0659C31.086 29.3425 31.0975 26.5792 30.9503 23.8423C30.8032 21.1259 30.8905 18.4077 30.8128 15.6914C30.7972 15.1268 30.8224 14.0119 30.2383 13.6901C28.9817 12.9987 28.2357 14.8845 27.916 15.6522C27.3397 17.0457 27.0067 18.5114 26.5951 19.9551C26.2443 21.1908 25.8448 22.4226 25.7094 23.7021C25.6091 24.6621 25.6183 25.7369 26.1198 26.6019C26.3717 27.0367 26.8071 27.3326 27.303 27.4576C27.8176 27.5893 28.406 27.4169 28.8944 27.6493C29.0203 27.7101 29.1311 27.8365 29.1817 27.9642C29.3399 28.3755 29.1902 28.9996 29.1407 29.4239C28.984 30.791 28.8182 32.1716 28.744 33.5452C28.7001 34.3759 28.6516 35.4398 29.1541 36.1635C29.4622 36.603 30.0864 37.0134 30.6496 36.795C31.4915 36.4728 31.4005 35.3843 31.3655 34.6862Z" fill="white"/>
<path d="M20.6559 14.2965C20.4139 14.3935 20.5057 15.2584 20.4949 15.5242C20.479 16.0016 20.5116 16.6334 20.4541 17.2522C20.4537 17.2577 20.4529 17.2616 20.4521 17.2654C20.4471 17.3084 20.4431 17.3548 20.436 17.4038C20.4285 17.4511 20.4205 17.4967 20.4147 17.5435C20.3631 17.8452 20.2649 18.2025 20.0794 18.3738C19.8687 18.5697 19.3966 18.5285 19.2326 18.297C18.9643 17.9202 18.9845 17.0789 18.9682 17.0541C18.9573 16.6561 18.8993 15.4523 18.8123 14.6587C18.8051 14.5989 18.7935 14.2392 18.4651 14.2007C18.3119 14.1841 18.1508 14.3146 18.0985 14.553C17.9443 15.2566 17.7998 16.598 17.7907 16.8089C17.7889 16.8293 17.788 16.8531 17.7879 16.8731C17.7879 16.8731 17.7871 16.8769 17.7875 16.8786C17.7865 16.9224 17.7344 17.9733 17.4684 18.3358C17.3294 18.5259 16.9686 18.6754 16.61 18.4742C16.4672 18.3933 16.3693 18.2372 16.3003 18.0701C15.9253 16.9029 16.2619 15.6171 16.3098 15.0044C16.324 14.8321 16.4801 14.2567 16.1319 14.276C15.6077 14.3044 14.9308 16.5379 14.8097 17.0497C14.513 18.3234 14.468 19.6844 14.9842 20.913C15.2709 21.5933 15.8318 22.1503 16.5273 22.4203C16.8346 22.5385 17.1762 22.6243 17.5379 22.6741C17.4078 25.5697 17.26 28.5912 17.1255 30.2728C17.022 31.5382 16.8998 32.8176 16.9162 34.0883C16.926 34.8475 16.918 35.7527 17.4163 36.3893C17.9376 37.0544 19.0372 36.7484 19.3341 35.9626C19.6671 35.0767 19.5702 34.0444 19.4568 32.4179C19.343 30.7896 19.2148 28.5684 19.1442 27.3734C19.0408 25.6137 19.0047 24.076 18.9948 22.673C19.9207 22.5407 20.7843 22.1434 21.2677 21.4128C21.4797 21.0932 21.6193 20.7361 21.7147 20.3687C21.8609 19.8122 21.9322 19.2025 21.9006 18.6285C21.8685 18.1 21.4342 13.9847 20.6559 14.2965Z" fill="white"/>
</svg>
